<?xml version="1.0" encoding="UTF-8"?>
<svg xmlns="http://www.w3.org/2000/svg" xmlns:xlink="http://www.w3.org/1999/xlink" width="50px" height="50px" viewBox="0 0 50 50">
  <!-- Generator: Sketch 55.2 (78181) - https://sketchapp.com -->
  <title>np_leaf_598263_000000</title>
  <desc>Created with Sketch.</desc>
  <g id="Homepage" stroke="none" stroke-width="1" fill="none" fill-rule="evenodd">
    <g id="Desktop---1440" transform="translate(-535.000000, -246.000000)" fill="#AAAAAA" fill-rule="nonzero">
      <g id="Mashead">
        <g id="Active-Main-Menu">
          <g id="Categories" transform="translate(155.000000, 221.000000)">
            <g id="Cat-1-Copy" transform="translate(360.000000, 0.000000)">
              <g id="np_leaf_598263_000000" transform="translate(20.000000, 25.000000)">
                <path d="M22.365,48.43757 C18.64235,48.43757 14.5855,47.7051 10.2125,46.2383 C9.78672,46.09377 9.44295,45.77541 9.26915,45.3594 C5.01135,35.1994 5.28085,25.7599 10.04845,18.0604 C16.42745,7.7559 30.38245,1.1754 48.33545,0.0039 C48.78467,-0.0175845 49.1909,0.1289 49.50535,0.42187 C49.821755,0.71679 49.99949,1.13087 49.99949,1.56247 C49.99949,16.39047 47.52099,35.84747 35.71849,44.33797 C31.91964,47.07037 27.45299,48.43757 22.36499,48.43757 L22.365,48.43757 Z M11.8825,43.4961 C20.9135,46.3828 28.316,45.8125 33.894,41.79885 C42.027,35.95135 46.609,22.29485 46.8645,3.24785 C30.7475,4.6326 18.351,10.58385 12.7045,19.70685 C8.5326,26.44335 8.25725,34.44685 11.88225,43.49585 L11.8825,43.4961 Z" id="Shape"></path>
                <path d="M1.56055,50 C0.8301,50 0.17775,49.4883 0.03125,48.74415 C-0.13672,47.8965 0.410155,47.0762 1.25585,46.9043 C1.414055,46.871097 17.50785,43.33205 30.33985,20.8748 C30.76563,20.12675 31.7207,19.8631 32.4707,20.29275 C33.21875,20.720485 33.48045,21.67555 33.05275,22.4236 C19.46475,46.2086 2.58225,49.8281 1.86925,49.9686 C1.765735,49.9900845 1.66222,50 1.560655,50 L1.56055,50 Z" id="Path"></path>
              </g>
            </g>
          </g>
        </g>
      </g>
    </g>
  </g>
</svg>
