<?xml version="1.0" encoding="UTF-8"?>
<svg width="50px" height="43px" viewBox="0 0 50 43" version="1.1" xmlns="http://www.w3.org/2000/svg" xmlns:xlink="http://www.w3.org/1999/xlink">
    <!-- Generator: Sketch 55.2 (78181) - https://sketchapp.com -->
    <title>np_group_1891465_000000</title>
    <desc>Created with Sketch.</desc>
    <g id="Homepage" stroke="none" stroke-width="1" fill="none" fill-rule="evenodd">
        <g id="Desktop---1440" transform="translate(-895.000000, -250.000000)" fill="#AAAAAA" fill-rule="nonzero">
            <g id="Mashead">
                <g id="Active-Main-Menu">
                    <g id="Categories" transform="translate(155.000000, 221.000000)">
                        <g id="Cat-1-Copy-2" transform="translate(720.000000, 0.000000)">
                            <g id="np_group_1891465_000000" transform="translate(20.000000, 29.000000)">
                                <path d="M38.9057292,40.846875 C38.3055729,40.846875 37.8213542,40.3606302 37.8213542,39.7625 C37.8213542,39.1623438 38.3055677,38.678125 38.9057292,38.678125 L46.6979167,38.678125 C47.3001042,38.678125 47.7863542,38.1898438 47.7863542,37.5896875 C47.7863542,37.5347552 47.7822854,37.4798229 47.7741469,37.4248906 L46.427324,28.5790573 C46.1974229,24.9210365 43.1843031,22.9556198 38.4299281,22.9556198 L33.6447719,22.9556198 C33.0466469,22.9556198 32.5603969,22.4714063 32.5603969,21.8712448 C32.5603969,21.2731198 33.0466417,20.7868698 33.6447719,20.7868698 L38.4299281,20.7868698 C44.2038865,20.7868698 48.2788865,23.4419219 48.5820115,28.3472865 L49.9186781,37.0978073 C49.9451266,37.2605677 49.9573339,37.4253646 49.9573339,37.5901563 C49.9573339,39.3886458 48.4985839,40.8473958 46.698063,40.8473958 L38.9057292,40.846875 Z M30.2979167,40.439988 C30.8980729,40.439988 31.3843229,39.9557604 31.3843229,39.355599 C31.3843229,39.3006667 31.3802542,39.2457344 31.3721161,39.1908021 L29.8136786,28.9631979 C29.5491943,24.7741354 26.1047724,22.5283021 20.703262,22.5283021 L12.8949286,22.5283021 C7.48919948,22.5283021 4.04701198,24.7723646 3.77409531,29.0590313 L2.22581406,39.1908021 C2.13629323,39.7848646 2.54319427,40.33825 3.13524115,40.4277813 C3.18813698,40.4359193 3.24306927,40.439988 3.29800156,40.439988 L30.2979167,40.439988 Z M2.8078125,42.5741927 C1.02963542,42.3015677 -0.191041667,40.6414323 0.0815625,38.8632552 L1.61963542,28.8267969 C1.9655,23.295026 6.46989583,20.3570052 12.8946354,20.3570052 L20.7029688,20.3570052 C27.1238021,20.3570052 31.6321354,23.296849 31.9680729,28.7309635 L33.5163542,38.8627344 C33.5407688,39.0254948 33.5529755,39.1902917 33.5529755,39.3550833 C33.5529755,41.1535729 32.0962568,42.6102917 30.2977672,42.6102917 L3.29776719,42.6102917 C3.13297031,42.6102917 2.9702099,42.5980844 2.80744948,42.5736708 L2.8078125,42.5741927 Z M34.9510417,17.3096094 C37.4717708,17.3096094 39.5164583,15.2649219 39.5164583,12.7441927 C39.5164583,10.2234635 37.4717708,8.18080729 34.9510417,8.18080729 C32.4303125,8.18080729 30.3876562,10.2234635 30.3876562,12.7441927 C30.3876562,15.2649219 32.4303125,17.3096094 34.9510417,17.3096094 Z M34.9510417,19.4804427 C31.2319792,19.4804427 28.2166667,16.4652865 28.2166667,12.7439844 C28.2166667,9.02492188 31.2318229,6.00960938 34.9510417,6.00960938 C38.6702604,6.00960938 41.6854167,9.02476563 41.6854167,12.7439844 C41.6854167,16.4650781 38.6702604,19.4804427 34.9510417,19.4804427 Z M16.7989583,17.1834635 C12.1134896,17.1834635 8.31510417,13.385026 8.31510417,8.69960937 C8.31510417,4.01617187 12.1135417,0.217838542 16.7989583,0.217838542 C21.484375,0.217838542 25.2828125,4.01627604 25.2828125,8.69960937 C25.2828125,13.3850781 21.484375,17.1834635 16.7989583,17.1834635 Z M16.7989583,15.0146615 C20.2860937,15.0146615 23.1119792,12.1866927 23.1119792,8.69955729 C23.1119792,5.21445313 20.2860417,2.38653646 16.7989583,2.38653646 C13.3118229,2.38653646 10.4859375,5.21450521 10.4859375,8.69955729 C10.4859375,12.1866927 13.311875,15.0146615 16.7989583,15.0146615 Z" id="Shape"></path>
                            </g>
                        </g>
                    </g>
                </g>
            </g>
        </g>
    </g>
</svg>