<?xml version="1.0" encoding="UTF-8"?>
<svg width="33px" height="50px" viewBox="0 0 33 50" version="1.1" xmlns="http://www.w3.org/2000/svg" xmlns:xlink="http://www.w3.org/1999/xlink">
    <!-- Generator: Sketch 55.2 (78181) - https://sketchapp.com -->
    <title>np_ribbon_1573774_000000</title>
    <desc>Created with Sketch.</desc>
    <g id="Homepage" stroke="none" stroke-width="1" fill="none" fill-rule="evenodd">
        <g id="Desktop---1440" transform="translate(-1263.000000, -246.000000)" fill="#AAAAAA" fill-rule="nonzero">
            <g id="Mashead">
                <g id="Active-Main-Menu">
                    <g id="Categories" transform="translate(155.000000, 221.000000)">
                        <g id="Cat-1-Copy-3" transform="translate(1079.000000, 0.000000)">
                            <g id="np_ribbon_1573774_000000" transform="translate(29.000000, 25.000000)">
                                <path d="M30.037931,7.83965517 C28.2509195,5.06488506 25.6602299,2.90298851 22.6114943,1.64137931 C19.5628161,0.377471264 16.2022989,0.0743678161 12.9758621,0.772586207 C11.0518966,1.16770115 9.22229885,1.92873563 7.58793103,3.01752874 C3.51103448,5.68005747 0.848275862,10.0376437 0.345402299,14.8824713 C-0.157471264,19.7248851 1.54873563,24.5382184 4.99247126,27.9818966 L8.38683908,31.3762644 C8.99747126,31.9868966 9.98522989,31.9868966 10.5959195,31.3762644 L11.6824713,30.2897126 C13.2763793,28.6935632 13.2763793,26.1118391 11.6824713,24.5155747 L10.2726437,23.1327011 C8.5933908,21.5051149 7.5854023,19.3072989 7.44396552,16.9723563 C7.44396552,13.7643103 9.15465517,10.7987931 11.933908,9.19591954 C14.7131609,7.59074713 18.1344828,7.59074713 20.9137931,9.19591954 C23.693046,10.7988506 25.4037356,13.7644253 25.4037356,16.9723563 C25.2578103,19.3093678 24.2431034,21.5071839 22.5571264,23.1327011 L2.02034483,43.6694828 C1.03931034,44.6662644 1.03931034,46.2646552 2.02034483,47.2614368 L3.47505747,48.7161494 C4.47183908,49.6971839 6.07022989,49.6971839 7.06701149,48.7161494 L16.4152874,39.431092 L21.4799425,34.3574713 L27.8466092,27.9816092 C31.7214368,24.1202299 33.3804598,18.5614943 32.2557471,13.2097701 C31.8673678,11.2948276 31.113046,9.47189655 30.0377011,7.83977011 L30.037931,7.83965517 Z" id="Path"></path>
                                <path d="M24.7218391,37.5810345 C23.9720115,36.8514368 22.7777011,36.8514368 22.0278736,37.5810345 L21.058046,38.5508621 C20.3306897,39.2782184 19.922069,40.2660345 19.922069,41.2941954 C19.922069,42.3224138 20.3306552,43.3101724 21.058046,44.0375287 L25.7724713,48.751954 C26.7692529,49.7329885 28.3676437,49.7329885 29.3644253,48.751954 L30.8191379,47.2972414 C31.8001724,46.3004598 31.8001724,44.702069 30.8191379,43.7052874 L24.7218391,37.5810345 Z" id="Path"></path>
                            </g>
                        </g>
                    </g>
                </g>
            </g>
        </g>
    </g>
</svg>