<svg xmlns="http://www.w3.org/2000/svg" viewBox="0 0 33 50"><title>icon-ribbon</title><path d="M30,7.84A16.23,16.23,0,0,0,13,.77,15.26,15.26,0,0,0,7.59,3,16.17,16.17,0,0,0,5,28l3.4,3.4a1.56,1.56,0,0,0,2.21,0l1.08-1.09a4.07,4.07,0,0,0,0-5.77l-1.41-1.39A9.38,9.38,0,0,1,7.44,17a9,9,0,0,1,18,0,9.34,9.34,0,0,1-2.84,6.16L2,43.67a2.56,2.56,0,0,0,0,3.59l1.46,1.46a2.56,2.56,0,0,0,3.59,0l9.35-9.29,5.06-5.07L27.85,28a16.18,16.18,0,0,0,4.41-14.77A15.36,15.36,0,0,0,30,7.84Z"/><path d="M24.72,37.58a1.93,1.93,0,0,0-2.69,0l-1,1a3.87,3.87,0,0,0,0,5.49l4.71,4.71a2.56,2.56,0,0,0,3.59,0l1.46-1.45a2.56,2.56,0,0,0,0-3.59Z"/></svg>