<svg xmlns="http://www.w3.org/2000/svg" viewBox="0 0 50 43"><title>icon-two-people</title><path d="M38.91,40.85a1.09,1.09,0,1,1,0-2.17H46.7a1.09,1.09,0,0,0,1.09-1.09,1,1,0,0,0,0-.17l-1.34-8.84c-.23-3.66-3.25-5.62-8-5.62H33.64a1.09,1.09,0,0,1,0-2.17h4.79c5.77,0,9.85,2.65,10.15,7.56l1.34,8.75a2.7,2.7,0,0,1,0,.49,3.26,3.26,0,0,1-3.26,3.26Zm-8.61-.41a1.08,1.08,0,0,0,1.08-1.08,1,1,0,0,0,0-.17L29.81,29c-.26-4.19-3.71-6.43-9.11-6.43H12.89c-5.4,0-8.84,2.24-9.12,6.53L2.23,39.19a1.09,1.09,0,0,0,.91,1.24H30.3ZM2.81,42.57A3.26,3.26,0,0,1,.08,38.86l1.54-10C2,23.3,6.47,20.36,12.89,20.36H20.7c6.42,0,10.93,2.94,11.27,8.37l1.55,10.13a4.19,4.19,0,0,1,0,.5,3.25,3.25,0,0,1-3.25,3.25H3.3a2.63,2.63,0,0,1-.49,0ZM35,17.31a4.57,4.57,0,1,0-4.56-4.57A4.58,4.58,0,0,0,35,17.31Zm0,2.17a6.74,6.74,0,1,1,6.74-6.74A6.73,6.73,0,0,1,35,19.48ZM16.8,17.18A8.48,8.48,0,1,1,25.28,8.7,8.47,8.47,0,0,1,16.8,17.18Zm0-2.17A6.31,6.31,0,1,0,10.49,8.7,6.3,6.3,0,0,0,16.8,15Z"/></svg>