<svg xmlns="http://www.w3.org/2000/svg" viewBox="0 0 50 50"><title>icon-raised-graph</title><path d="M.53,28.37V49a.69.69,0,0,0,.69.69h9.5a.69.69,0,0,0,.69-.69V28.37a.69.69,0,0,0-.69-.7H1.22A.69.69,0,0,0,.53,28.37Zm1.39.69H10V48.29H1.92Z"/><path d="M14,18.36a.69.69,0,0,0-.7.69V49a.69.69,0,0,0,.7.69h9.49a.69.69,0,0,0,.69-.69V19.05a.69.69,0,0,0-.69-.69Zm8.79,29.93h-8.1V19.75h8.1Z"/><path d="M26.69,22.91a.7.7,0,0,0-.7.7V49a.7.7,0,0,0,.7.69h9.49a.69.69,0,0,0,.69-.69V23.61a.69.69,0,0,0-.69-.7Zm8.79,25.38h-8.1v-24h8.1Z"/><path d="M49.6,49V13.29a.69.69,0,0,0-.69-.69H39.42a.7.7,0,0,0-.7.69V49a.7.7,0,0,0,.7.69h9.49A.69.69,0,0,0,49.6,49Zm-1.38-.7H40.11V14h8.11Z"/><path d="M6.26,17.66a2.1,2.1,0,1,0,1.82,1.09l9.32-5.91a2,2,0,0,0,1.3.47,2.07,2.07,0,0,0,1.85-1.15l8.8,3.55a2.09,2.09,0,1,0,3.89-1.08L43,3.87a2.08,2.08,0,1,0-.93-1.73,1.91,1.91,0,0,0,.1.58l-10,11a2.1,2.1,0,0,0-.76-.15,2.05,2.05,0,0,0-1.64.82l-9.07-3.66a2.08,2.08,0,0,0-4.1.5,2,2,0,0,0,0,.43L7,17.8a2.19,2.19,0,0,0-.72-.14Zm0,2.78A.7.7,0,1,1,7,19.75.69.69,0,0,1,6.26,20.44Zm37.9-19a.7.7,0,1,1,0,1.39.7.7,0,0,1,0-1.39ZM31.43,15a.7.7,0,1,1-.69.69A.69.69,0,0,1,31.43,15ZM18.7,10.53a.71.71,0,0,1,.7.7.7.7,0,0,1-.7.69.69.69,0,0,1-.69-.69A.7.7,0,0,1,18.7,10.53Z"/></svg>