<svg xmlns="http://www.w3.org/2000/svg" viewBox="0 0 239 103"><title>icon-ihds-logo--text</title><polygon points="2.17 27.57 2.17 1.85 7.25 1.85 7.25 27.57 2.17 27.57" fill="#fff"/><path d="M17.6,27.57H12.77V9.72h4.68v2.22A5.92,5.92,0,0,1,22.6,9.25c4.43,0,6.46,3.15,6.46,7.08V27.57H24.24V17.16c0-2-1-3.55-3.31-3.55-2.1,0-3.33,1.62-3.33,3.69Z" fill="#fff"/><path d="M36.57,21.7a3,3,0,0,0,3.27,2.72c1.59,0,2.36-.83,2.36-1.78,0-.79-.55-1.45-1.93-1.74l-2.36-.55c-3.45-.76-5-2.83-5-5.33,0-3.2,2.84-5.84,6.68-5.84,5.08,0,6.79,3.22,7,5.15l-4,.9a2.72,2.72,0,0,0-2.94-2.39,2.06,2.06,0,0,0-2.29,1.79c0,.87.65,1.41,1.63,1.59l2.54.55c3.52.72,5.29,2.86,5.29,5.48,0,2.9-2.25,5.88-6.93,5.88-5.37,0-7.22-3.48-7.44-5.51Z" fill="#fff"/><path d="M56.64,9.73h3.59V14H56.64v7.47c0,1.55.72,2.07,2.1,2.07a6.92,6.92,0,0,0,1.48-.15v4a7.17,7.17,0,0,1-2.72.43c-3.48,0-5.65-2.07-5.65-5.51V14H48.62V9.73h.91A2.57,2.57,0,0,0,52.29,6.9V4.4h4.36V9.73Z" fill="#fff"/><path d="M66.72.88a3,3,0,1,1-3,3A3,3,0,0,1,66.72.88Zm-2.4,26.69V9.72h4.83V27.57Z" fill="#fff"/><path d="M80.26,9.73h3.6V14h-3.6v7.47c0,1.55.72,2.07,2.1,2.07a7.11,7.11,0,0,0,1.49-.15v4a7.25,7.25,0,0,1-2.72.43c-3.49,0-5.66-2.07-5.66-5.51V14H72.25V9.73h.89A2.57,2.57,0,0,0,75.9,6.9V4.4h4.36Z" fill="#fff"/><path d="M99.6,25.66a5.64,5.64,0,0,1-4.94,2.39c-4.31,0-6.79-3.15-6.79-7V9.73h4.82V20c0,2,1,3.6,3.27,3.6a3.22,3.22,0,0,0,3.38-3.52V9.73h4.82V24.35a26.7,26.7,0,0,0,.19,3.22H99.74A12.49,12.49,0,0,1,99.6,25.66Z" fill="#fff"/><path d="M115.27,9.73h3.59V14h-3.59v7.47c0,1.55.72,2.07,2.1,2.07a7.08,7.08,0,0,0,1.48-.15v4a7.21,7.21,0,0,1-2.72.43c-3.48,0-5.65-2.07-5.65-5.51V14h-3.23V9.73h.91a2.58,2.58,0,0,0,2.76-2.83V4.4h4.36V9.73Z" fill="#fff"/><path d="M138.77,22.46c-.9,3.08-3.73,5.66-8.12,5.66-4.9,0-9.22-3.52-9.22-9.54,0-5.69,4.2-9.39,8.77-9.39,5.51,0,8.82,3.52,8.82,9.25,0,.69-.07,1.41-.07,1.48H126.18a4.34,4.34,0,0,0,4.5,4.06,3.94,3.94,0,0,0,4.06-2.72Zm-4.49-5.84c-.07-1.78-1.23-3.52-4-3.52a3.85,3.85,0,0,0-4,3.52Z" fill="#fff"/><path d="M151,21.63a4.07,4.07,0,0,1-1.18-3c0-.28,0-.6.09-1a7.42,7.42,0,0,1,.23-1,10.6,10.6,0,0,1,3.14-5,6.88,6.88,0,0,1,4.59-2.13,4,4,0,0,1,4.19,4.15,5.51,5.51,0,0,1-.1,1,9.39,9.39,0,0,1-.22,1.06,10.69,10.69,0,0,1-3.17,4.95A6.84,6.84,0,0,1,154,22.78,4.1,4.1,0,0,1,151,21.63Zm6-1.37a12.55,12.55,0,0,0,2.1-4.34,15.93,15.93,0,0,0,.39-1.63,8.34,8.34,0,0,0,.13-1.38,3,3,0,0,0-.52-1.86,1.72,1.72,0,0,0-1.45-.66,3.61,3.61,0,0,0-2.7,1.65,12.48,12.48,0,0,0-2.1,4.36,15.28,15.28,0,0,0-.37,1.64,7.19,7.19,0,0,0-.14,1.35,3,3,0,0,0,.52,1.86,1.74,1.74,0,0,0,1.46.66A3.62,3.62,0,0,0,157,20.26Z" fill="#fff"/><path d="M168.2,11.06l-1.47,6.65a28.56,28.56,0,0,1-2.72,8c-1,1.68-2.18,2.51-3.54,2.51a2.65,2.65,0,0,1-1.6-.42,1.39,1.39,0,0,1-.56-1.2,1.43,1.43,0,0,1,.32-1,1,1,0,0,1,.81-.38,1.07,1.07,0,0,1,1,.52,1.12,1.12,0,0,1-.06,1.14.37.37,0,0,0,0,.35.31.31,0,0,0,.32.16,1.89,1.89,0,0,0,1.66-1.21,19.54,19.54,0,0,0,1.39-4.54l2.41-10.54h-2.67L163.7,10h2.7a14.26,14.26,0,0,1,1.88-4.4,4.15,4.15,0,0,1,3.53-1.76,2.84,2.84,0,0,1,1.7.46,1.48,1.48,0,0,1,.62,1.27,1.27,1.27,0,0,1-.32.91,1.09,1.09,0,0,1-.84.34,1,1,0,0,1-1-.51,1.35,1.35,0,0,1,0-1.22.26.26,0,0,0-.09-.3.72.72,0,0,0-.44-.12c-.68,0-1.28.53-1.81,1.61a27.7,27.7,0,0,0-1.26,3.7h3.15l-.24,1.06H168.2Z" fill="#fff"/><path d="M2.17,64.65V38.93h9.22c7.33,0,12.71,4.75,12.71,12.88S18.69,64.65,11.36,64.65Zm9-4.64c4.2,0,7.72-2.62,7.72-8.2s-3.48-8.23-7.69-8.23h-4V60Z" fill="#fff"/><path d="M30.48,38a3,3,0,1,1-3,3A3,3,0,0,1,30.48,38Zm-2.4,26.69V46.8H32.9V64.65Z" fill="#fff"/><path d="M41.15,64.48a4,4,0,0,0,4.17,3.38c3,0,4.75-1.53,4.75-5V61.57a5.64,5.64,0,0,1-5,2.29c-4.75,0-8.31-3.67-8.31-8.67,0-4.72,3.41-8.71,8.31-8.71,2.83,0,4.46,1.24,5.08,2.43v-2.1h4.65V62.74c0,4.89-2.65,9.36-9.37,9.36-4.89,0-8.16-3-8.67-6.46Zm9-9.29a4.25,4.25,0,1,0-8.49,0,4.17,4.17,0,0,0,4.29,4.53C48.4,59.72,50.14,58,50.14,55.19Z" fill="#fff"/><path d="M62.12,38a3,3,0,1,1-3,3A3,3,0,0,1,62.12,38Zm-2.4,26.69V46.8h4.82V64.65Z" fill="#fff"/><path d="M75.65,46.81h3.59V51.1H75.65v7.47c0,1.55.72,2.07,2.1,2.07a7.08,7.08,0,0,0,1.48-.15v4a7.21,7.21,0,0,1-2.72.43c-3.48,0-5.65-2.07-5.65-5.51V51.1H67.63V46.81h.91A2.58,2.58,0,0,0,71.3,44v-2.5h4.36v5.33Z" fill="#fff"/><path d="M87.7,54.39l4.39-.64c1-.15,1.34-.65,1.34-1.27,0-1.27-1-2.32-3-2.32A3.17,3.17,0,0,0,87,53.07l-4.29-.91c.29-2.79,2.87-5.88,7.66-5.88,5.65,0,7.76,3.19,7.76,6.79v8.77a21.17,21.17,0,0,0,.22,2.83H93.93a12,12,0,0,1-.18-2.14,6,6,0,0,1-5.27,2.65c-3.81,0-6.13-2.58-6.13-5.37C82.36,56.6,84.72,54.83,87.7,54.39Zm5.73,3v-.79l-4,.62a2.25,2.25,0,0,0-2.22,2.24,2.1,2.1,0,0,0,2.32,2.07C91.54,61.57,93.43,60.59,93.43,57.43Z" fill="#fff"/><polygon points="103.01 64.65 103.01 38.39 107.83 38.39 107.83 64.65 103.01 64.65" fill="#fff"/><polygon points="138.53 64.65 138.53 53.99 127.32 53.99 127.32 64.65 122.31 64.65 122.31 38.93 127.32 38.93 127.32 49.27 138.53 49.27 138.53 38.93 143.57 38.93 143.57 64.65 138.53 64.65" fill="#fff"/><path d="M160.62,62.74a5.61,5.61,0,0,1-4.93,2.39c-4.32,0-6.79-3.15-6.79-7V46.81h4.82v10.3c0,2,1,3.6,3.27,3.6a3.22,3.22,0,0,0,3.38-3.52V46.81h4.82V61.43a29.6,29.6,0,0,0,.18,3.22h-4.6A12.27,12.27,0,0,1,160.62,62.74Z" fill="#fff"/><path d="M170.35,64.65V46.8H175V49a6.15,6.15,0,0,1,5.23-2.69,5.51,5.51,0,0,1,5.29,3,6.2,6.2,0,0,1,5.66-3c3.3,0,6.46,2,6.46,6.79V64.64h-4.68V54.05c0-1.92-.95-3.37-3.15-3.37a3.28,3.28,0,0,0-3.31,3.52V64.64h-4.79V54.05c0-1.92-1-3.37-3.15-3.37a3.27,3.27,0,0,0-3.34,3.52V64.64h-4.82Z" fill="#fff"/><path d="M206.74,54.39l4.38-.64c1-.15,1.34-.65,1.34-1.27,0-1.27-1-2.32-3-2.32A3.17,3.17,0,0,0,206,53.07l-4.28-.91c.29-2.79,2.86-5.88,7.65-5.88,5.66,0,7.77,3.19,7.77,6.79v8.77a19.62,19.62,0,0,0,.22,2.83H213a11,11,0,0,1-.19-2.14,6,6,0,0,1-5.26,2.65c-3.81,0-6.13-2.58-6.13-5.37C201.41,56.6,203.76,54.83,206.74,54.39Zm5.73,3v-.79l-4,.62a2.25,2.25,0,0,0-2.22,2.24,2.1,2.1,0,0,0,2.32,2.07C210.58,61.57,212.47,60.59,212.47,57.43Z" fill="#fff"/><path d="M226.87,64.65h-4.82V46.8h4.68V49a5.92,5.92,0,0,1,5.15-2.69c4.43,0,6.46,3.15,6.46,7.08V64.65h-4.82V54.24c0-2-1-3.55-3.3-3.55-2.1,0-3.33,1.62-3.33,3.69V64.65Z" fill="#fff"/><path d="M15,83.52a4.39,4.39,0,0,0-4.68-3.62c-2.43,0-4,1.55-4,3.26,0,1.41.91,2.54,2.8,2.91l3.59.69c4.68.9,7.18,3.95,7.18,7.58,0,4-3.3,7.94-9.29,7.94-6.82,0-9.83-4.39-10.23-8.06L5,93c.21,2.53,2,4.82,5.62,4.82,2.69,0,4.17-1.34,4.17-3.15,0-1.49-1.12-2.65-3.12-3l-3.59-.73C4,90,1.31,87.4,1.31,83.51c0-4.57,4.1-8.05,9-8.05,6.24,0,8.63,3.77,9.22,6.67Z" fill="#fff"/><path d="M29.86,83.89h3.6v4.29h-3.6v7.47c0,1.55.73,2.07,2.11,2.07a7.08,7.08,0,0,0,1.48-.15v4a7.21,7.21,0,0,1-2.72.43c-3.48,0-5.66-2.07-5.66-5.51v-8.3H21.85V83.89h.91a2.58,2.58,0,0,0,2.76-2.83v-2.5h4.36v5.33Z" fill="#fff"/><path d="M49.2,99.82a5.63,5.63,0,0,1-4.93,2.39c-4.32,0-6.79-3.15-6.79-7V83.89H42.3v10.3c0,2,1,3.6,3.26,3.6a3.22,3.22,0,0,0,3.38-3.52V83.89h4.82V98.51a29,29,0,0,0,.19,3.22h-4.6A11.14,11.14,0,0,1,49.2,99.82Z" fill="#fff"/><path d="M75.86,98.51c0,1.19.07,2.5.15,3.22H71.4a12.57,12.57,0,0,1-.18-2.07,5.64,5.64,0,0,1-5,2.51c-5.08,0-8.71-4-8.71-9.4,0-5.22,3.53-9.32,8.56-9.32,3.09,0,4.54,1.27,5,2.22V75.47h4.75v23Zm-9.06-.66c2.46,0,4.38-1.88,4.38-5.12s-1.92-5-4.38-5-4.43,1.81-4.43,5S64.25,97.85,66.8,97.85Z" fill="#fff"/><path d="M83.49,75a3,3,0,1,1-3,3A3,3,0,0,1,83.49,75ZM81.1,101.73V83.88h4.82v17.85Z" fill="#fff"/><path d="M107.07,96.62a8.05,8.05,0,0,1-8.13,5.66c-4.9,0-9.22-3.52-9.22-9.54,0-5.69,4.2-9.39,8.77-9.39,5.52,0,8.82,3.52,8.82,9.25,0,.69-.07,1.41-.07,1.48H94.47A4.34,4.34,0,0,0,99,98.14,3.94,3.94,0,0,0,103,95.42Zm-4.5-5.84c-.07-1.78-1.23-3.52-4-3.52a3.85,3.85,0,0,0-4,3.52Z" fill="#fff"/><path d="M113.74,95.86A3,3,0,0,0,117,98.58c1.59,0,2.36-.83,2.36-1.78,0-.8-.55-1.45-1.93-1.74l-2.36-.55c-3.45-.76-5-2.83-5-5.33,0-3.2,2.84-5.84,6.68-5.84,5.08,0,6.79,3.22,7,5.15l-4,.9A2.72,2.72,0,0,0,116.79,87a2.06,2.06,0,0,0-2.29,1.79c0,.86.65,1.41,1.63,1.59l2.54.55c3.52.73,5.29,2.86,5.29,5.48,0,2.9-2.25,5.88-6.93,5.88-5.37,0-7.22-3.48-7.44-5.51Z" fill="#fff"/></svg>