<svg xmlns="http://www.w3.org/2000/svg" viewBox="0 0 26 26"><title>icon-instagram</title><path d="M12.94,6.28a6.66,6.66,0,1,0,6.66,6.66A6.67,6.67,0,0,0,12.94,6.28Zm0,10.93a4.27,4.27,0,1,1,4.27-4.27A4.29,4.29,0,0,1,12.94,17.21Z" fill="#fff"/><circle cx="19.44" cy="5.99" r="1.51" fill="#fff"/><path d="M23.74,2.13A7.45,7.45,0,0,0,18.27,0H7.55A7.13,7.13,0,0,0,0,7.55V18.22a7.49,7.49,0,0,0,2.19,5.57,7.6,7.6,0,0,0,5.41,2H18.22a7.71,7.71,0,0,0,5.47-2,7.47,7.47,0,0,0,2.13-5.52V7.55A7.49,7.49,0,0,0,23.74,2.13Zm-.31,16.14A5,5,0,0,1,22,22.07a5.37,5.37,0,0,1-3.8,1.36H7.6a5.37,5.37,0,0,1-3.8-1.36,5.23,5.23,0,0,1-1.41-3.85V7.55A5.19,5.19,0,0,1,3.8,3.75,5.29,5.29,0,0,1,7.6,2.39H18.32a5.16,5.16,0,0,1,3.8,1.41,5.36,5.36,0,0,1,1.41,3.75V18.27Z" fill="#fff"/></svg>