<svg xmlns="http://www.w3.org/2000/svg" viewBox="0 0 26 22"><title>icon-twitter</title><path d="M16.29.25a5.46,5.46,0,0,0-3.67,5.47l.06.93-.94-.11A15.29,15.29,0,0,1,2.8,2.13L1.56.9l-.32.91A5.47,5.47,0,0,0,2.41,7.43c.75.8.58.91-.72.44a2.4,2.4,0,0,0-.88-.21,6.82,6.82,0,0,0,.68,2.55,6,6,0,0,0,2.57,2.43l.92.44H3.89c-1.05,0-1.09,0-1,.42a5.68,5.68,0,0,0,3.52,3.12l1.16.4-1,.61a10.65,10.65,0,0,1-5,1.4A5.54,5.54,0,0,0,0,19.19a14.31,14.31,0,0,0,3.63,1.67A15.81,15.81,0,0,0,16,19.46a16.57,16.57,0,0,0,6.26-7.37,19.56,19.56,0,0,0,1.27-5.7c0-.87.06-1,1.11-2A13.61,13.61,0,0,0,25.91,2.9c.19-.37.16-.37-.79,0-1.6.57-1.82.49-1-.36a5.55,5.55,0,0,0,1.27-2c0-.06-.28,0-.6.2a10.51,10.51,0,0,1-1.65.65l-1,.32L21.17,1A7.42,7.42,0,0,0,19.58.18,6.42,6.42,0,0,0,16.29.25Z" fill="#fff"/></svg>