<?xml version="1.0" encoding="UTF-8"?>
<svg width="50px" height="50px" viewBox="0 0 50 50" version="1.1" xmlns="http://www.w3.org/2000/svg" xmlns:xlink="http://www.w3.org/1999/xlink">
    <!-- Generator: Sketch 55.2 (78181) - https://sketchapp.com -->
    <title>np_commerce_1743338_000000</title>
    <desc>Created with Sketch.</desc>
    <g id="Homepage" stroke="none" stroke-width="1" fill="none" fill-rule="evenodd">
        <g id="Desktop---1440" transform="translate(-175.000000, -246.000000)" fill="#AAAAAA" fill-rule="nonzero">
            <g id="Mashead">
                <g id="Active-Main-Menu">
                    <g id="Categories" transform="translate(155.000000, 221.000000)">
                        <g id="Cat-1">
                            <g id="np_commerce_1743338_000000" transform="translate(20.000000, 25.000000)">
                                <path d="M0.529166667,28.3666667 L0.529166667,48.9854167 C0.529166667,49.3679028 0.841125,49.6798611 1.22361111,49.6798611 L10.7152778,49.6798611 C11.0977639,49.6798611 11.4097222,49.3679028 11.4097222,48.9854167 L11.4097222,28.3666667 C11.4097222,27.9841806 11.0977639,27.6722222 10.7152778,27.6722222 L1.22361111,27.6722222 C0.841125,27.6722222 0.529166667,27.9841806 0.529166667,28.3666667 Z M1.91805556,29.0611111 L10.0208333,29.0611111 L10.0208333,48.2909722 L1.91805556,48.2909722 L1.91805556,29.0611111 Z" id="Shape"></path>
                                <path d="M13.9569444,18.3569444 C13.5744583,18.3569444 13.2625,18.6689028 13.2625,19.0513889 L13.2625,48.9881944 C13.2625,49.3706806 13.5744583,49.6826389 13.9569444,49.6826389 L23.4458333,49.6826389 C23.8283194,49.6826389 24.1402778,49.3706806 24.1402778,48.9881944 L24.1402778,19.0513889 C24.1402778,18.6689028 23.8283194,18.3569444 23.4458333,18.3569444 L13.9569444,18.3569444 Z M22.7513889,48.2909722 L14.6513889,48.2909722 L14.6513889,19.7458333 L22.7513889,19.7458333 L22.7513889,48.2909722 Z" id="Shape"></path>
                                <path d="M26.6875,22.9111111 C26.3050139,22.9111111 25.9930556,23.2230694 25.9930556,23.6055556 L25.9930556,48.9881944 C25.9930556,49.3706806 26.3050139,49.6826389 26.6875,49.6826389 L36.1763889,49.6826389 C36.558875,49.6826389 36.8708333,49.3706806 36.8708333,48.9881944 L36.8708333,23.6055556 C36.8708333,23.2230694 36.558875,22.9111111 36.1763889,22.9111111 L26.6875,22.9111111 Z M35.4819444,48.2909722 L27.3819444,48.2909722 L27.3819444,24.2972222 L35.4819444,24.2972222 L35.4819444,48.2909722 Z" id="Shape"></path>
                                <path d="M49.6041667,48.9854167 L49.6041667,13.2895833 C49.6041667,12.9070972 49.2922083,12.5951389 48.9097222,12.5951389 L39.4180556,12.5951389 C39.0355694,12.5951389 38.7236111,12.9070972 38.7236111,13.2895833 L38.7236111,48.9854167 C38.7236111,49.3679028 39.0355694,49.6798611 39.4180556,49.6798611 L48.9097222,49.6798611 C49.2922083,49.6798611 49.6041667,49.3706181 49.6041667,48.9854167 Z M48.2152778,48.2909722 L40.1125,48.2909722 L40.1125,13.9840278 L48.2152778,13.9840278 L48.2152778,48.2909722 Z" id="Shape"></path>
                                <path d="M6.25833333,17.6625 C5.11090278,17.6625 4.175,18.5984028 4.175,19.7458333 C4.175,20.8932639 5.11090278,21.8291667 6.25833333,21.8291667 C7.40576389,21.8291667 8.34166667,20.8932639 8.34166667,19.7458333 C8.34166667,19.3823333 8.24129861,19.0459722 8.07582639,18.7502778 L17.3966597,12.839375 C17.7547292,13.1296319 18.2050625,13.3113819 18.7014514,13.3113819 C19.5125625,13.3113819 20.2097153,12.8420903 20.5515208,12.1639514 L29.3542986,15.7148542 C29.3895632,16.8352014 30.3037431,17.7358264 31.4322153,17.7358264 C32.5796458,17.7358264 33.5155486,16.7999236 33.5155486,15.6524931 C33.5155486,15.2808542 33.4097569,14.9363819 33.2388542,14.6324931 L43.0096875,3.86582639 C43.3406319,4.08826389 43.7394097,4.21847222 44.1653125,4.21847222 C45.3127431,4.21847222 46.2486458,3.28256944 46.2486458,2.13513889 C46.2486458,0.987708333 45.3127431,0.0518055556 44.1653125,0.0518055556 C43.0178819,0.0518055556 42.0819792,0.987708333 42.0819792,2.13513889 C42.0819792,2.33859028 42.1199569,2.53390278 42.1769236,2.71836111 L32.1915069,13.7183611 C31.9555069,13.6261319 31.7005139,13.5691667 31.4319236,13.5691667 C30.7591806,13.5691667 30.1678264,13.8946875 29.7853264,14.3911111 L20.7165764,10.7344444 C20.4941389,9.82569444 19.6776181,9.1475 18.6983819,9.1475 C17.5509514,9.1475 16.6150486,10.0834028 16.6150486,11.2308333 C16.6150486,11.3800278 16.631325,11.5238056 16.6611646,11.6621458 L6.97991458,17.8008958 C6.75476181,17.7168056 6.51333125,17.6625486 6.25831736,17.6625486 L6.25833333,17.6625 Z M6.25833333,20.4402778 C5.87584722,20.4402778 5.56388889,20.1283194 5.56388889,19.7458333 C5.56388889,19.3633472 5.87584722,19.0513889 6.25833333,19.0513889 C6.64081944,19.0513889 6.95277778,19.3633472 6.95277778,19.7458333 C6.95277778,20.1283194 6.64081944,20.4402778 6.25833333,20.4402778 Z M44.1625,1.44097222 C44.5449861,1.44097222 44.8569444,1.75293056 44.8569444,2.13541667 C44.8569444,2.51790278 44.5449861,2.82986111 44.1625,2.82986111 C43.7800139,2.82986111 43.4680556,2.51790278 43.4680556,2.13541667 C43.4680556,1.75293056 43.7800139,1.44097222 44.1625,1.44097222 Z M31.4319444,14.9583333 C31.8144306,14.9583333 32.1263889,15.2702917 32.1263889,15.6527778 C32.1263889,16.0352639 31.8144306,16.3472222 31.4319444,16.3472222 C31.0494583,16.3472222 30.7375,16.0352639 30.7375,15.6527778 C30.7375,15.2702917 31.0494583,14.9583333 31.4319444,14.9583333 Z M18.7013889,10.5339583 C19.083875,10.5339583 19.3958333,10.8459167 19.3958333,11.2284028 C19.3958333,11.6108889 19.083875,11.9228472 18.7013889,11.9228472 C18.3189028,11.9228472 18.0069444,11.6108889 18.0069444,11.2284028 C18.0069444,10.8459167 18.3189028,10.5339583 18.7013889,10.5339583 Z" id="Shape"></path>
                            </g>
                        </g>
                    </g>
                </g>
            </g>
        </g>
    </g>
</svg>