<?xml version="1.0" encoding="UTF-8"?>
<svg width="14px" height="14px" viewBox="0 0 14 14" version="1.1" xmlns="http://www.w3.org/2000/svg" xmlns:xlink="http://www.w3.org/1999/xlink">
    <!-- Generator: Sketch 55.2 (78181) - https://sketchapp.com -->
    <title>Shape</title>
    <desc>Created with Sketch.</desc>
    <g id="Homepage" stroke="none" stroke-width="1" fill="none" fill-rule="evenodd">
        <g id="Desktop---1440" transform="translate(-1239.000000, -107.000000)" fill="#666666" fill-rule="nonzero">
            <g id="Mashead">
                <g id="Menu" transform="translate(1226.000000, 77.000000)">
                    <g id="Search" transform="translate(0.000000, 17.000000)">
                        <path d="M19.0786494,13 C15.7283926,13 13,15.72784 13,19.0786494 C13,22.4289063 15.72784,25.1572989 19.0786494,25.1572989 C20.5558533,25.1572989 21.9092739,24.6277196 22.9641958,23.7470154 L26.0552812,26.8381007 C26.2711469,27.0539664 26.6222718,27.0539664 26.8381375,26.8381007 C27.0540033,26.622235 27.0540033,26.2768572 26.8381375,26.0609914 L23.7470522,22.9699061 C24.6263196,21.9157762 25.1573357,20.5552086 25.1573357,19.0786494 C25.1573357,15.7283926 22.4294957,13 19.0786863,13 L19.0786494,13 Z M19.0786494,14.105209 C21.8315408,14.105209 24.0520899,16.3250212 24.0520899,19.0786494 C24.0520899,21.8315408 21.8322776,24.0520899 19.0786494,24.0520899 C16.325758,24.0520899 14.105209,21.8322776 14.105209,19.0786494 C14.105209,16.325758 16.3250212,14.105209 19.0786494,14.105209 Z" id="Shape"></path>
                    </g>
                </g>
            </g>
        </g>
    </g>
</svg>